<?xml version="1.0" encoding="UTF-8" standalone="no"?><!-- Generator: Gravit.io --><svg xmlns="http://www.w3.org/2000/svg" xmlns:xlink="http://www.w3.org/1999/xlink" style="isolation:isolate" viewBox="0 0 559 178" width="559pt" height="178pt"><defs><clipPath id="_clipPath_BzUuWfRYqP51pqB0s79CleVriiBhOHKA"><rect width="559" height="178"/></clipPath></defs><g clip-path="url(#_clipPath_BzUuWfRYqP51pqB0s79CleVriiBhOHKA)"><g style="isolation:isolate"><g style="isolation:isolate"><path d="M 66.041 5 L 89.959 5 C 91.638 5 93 6.362 93 8.041 L 93 170.959 C 93 172.638 91.638 174 89.959 174 L 66.041 174 C 64.362 174 63 172.638 63 170.959 L 63 8.041 C 63 6.362 64.362 5 66.041 5 Z" style="stroke:none;fill:#607D8B;stroke-miterlimit:10;"/><g opacity="0.31"><line x1="69" y1="6" x2="69" y2="173" vector-effect="non-scaling-stroke" stroke-width="1" stroke="rgb(0,0,0)" stroke-opacity="0.4" stroke-linejoin="miter" stroke-linecap="square" stroke-miterlimit="3" style="mix-blend-mode:linear_burn;"/></g><g opacity="0.31"><line x1="91" y1="38" x2="70" y2="38" vector-effect="non-scaling-stroke" stroke-width="1" stroke="rgb(0,0,0)" stroke-opacity="0.4" stroke-linejoin="miter" stroke-linecap="square" stroke-miterlimit="3" style="mix-blend-mode:linear_burn;"/></g><g opacity="0.31"><line x1="91" y1="42" x2="70" y2="42" vector-effect="non-scaling-stroke" stroke-width="1" stroke="rgb(0,0,0)" stroke-opacity="0.4" stroke-linejoin="miter" stroke-linecap="square" stroke-miterlimit="3" style="mix-blend-mode:linear_burn;"/></g><g opacity="0.31"><line x1="91" y1="98" x2="70" y2="98" vector-effect="non-scaling-stroke" stroke-width="1" stroke="rgb(0,0,0)" stroke-opacity="0.4" stroke-linejoin="miter" stroke-linecap="square" stroke-miterlimit="3" style="mix-blend-mode:linear_burn;"/></g><g opacity="0.31"><line x1="91" y1="92" x2="70" y2="92" vector-effect="non-scaling-stroke" stroke-width="1" stroke="rgb(0,0,0)" stroke-opacity="0.4" stroke-linejoin="miter" stroke-linecap="square" stroke-miterlimit="3" style="mix-blend-mode:linear_burn;"/></g><g opacity="0.31"><line x1="89.5" y1="144" x2="70" y2="144" vector-effect="non-scaling-stroke" stroke-width="1" stroke="rgb(0,0,0)" stroke-opacity="0.4" stroke-linejoin="miter" stroke-linecap="square" stroke-miterlimit="3" style="mix-blend-mode:linear_burn;"/></g><g opacity="0.31"><line x1="89.5" y1="141" x2="70" y2="141" vector-effect="non-scaling-stroke" stroke-width="1" stroke="rgb(0,0,0)" stroke-opacity="0.4" stroke-linejoin="miter" stroke-linecap="square" stroke-miterlimit="3" style="mix-blend-mode:linear_burn;"/></g><path d="M 108.23 5 L 133.77 5 C 135.001 5 136 5.999 136 7.23 L 136 171.77 C 136 173.001 135.001 174 133.77 174 L 108.23 174 C 106.999 174 106 173.001 106 171.77 L 106 7.23 C 106 5.999 106.999 5 108.23 5 Z" style="stroke:none;fill:#607D8B;stroke-miterlimit:10;"/><path d="M 109.244 5 L 132.756 5 C 133.442 5 134 5.558 134 6.244 L 134 172.756 C 134 173.442 133.442 174 132.756 174 L 109.244 174 C 108.558 174 108 173.442 108 172.756 L 108 6.244 C 108 5.558 108.558 5 109.244 5 Z" style="stroke:none;fill:#FFFFF9;stroke-miterlimit:10;"/><g opacity="0.31"><line x1="110" y1="6" x2="110" y2="17" vector-effect="non-scaling-stroke" stroke-width="1" stroke="rgb(0,0,0)" stroke-opacity="0.4" stroke-linejoin="miter" stroke-linecap="square" stroke-miterlimit="3" style="mix-blend-mode:linear_burn;"/></g><g opacity="0.31"><line x1="115" y1="6" x2="115" y2="27" vector-effect="non-scaling-stroke" stroke-width="1" stroke="rgb(0,0,0)" stroke-opacity="0.4" stroke-linejoin="miter" stroke-linecap="square" stroke-miterlimit="3" style="mix-blend-mode:linear_burn;"/></g><g opacity="0.31"><line x1="120" y1="6" x2="120" y2="53" vector-effect="non-scaling-stroke" stroke-width="1" stroke="rgb(0,0,0)" stroke-opacity="0.4" stroke-linejoin="miter" stroke-linecap="square" stroke-miterlimit="3" style="mix-blend-mode:linear_burn;"/></g><g opacity="0.31"><line x1="124" y1="6" x2="124" y2="43" vector-effect="non-scaling-stroke" stroke-width="1" stroke="rgb(0,0,0)" stroke-opacity="0.4" stroke-linejoin="miter" stroke-linecap="square" stroke-miterlimit="3" style="mix-blend-mode:linear_burn;"/></g><g opacity="0.31"><line x1="129" y1="6" x2="129" y2="33" vector-effect="non-scaling-stroke" stroke-width="1" stroke="rgb(0,0,0)" stroke-opacity="0.4" stroke-linejoin="miter" stroke-linecap="square" stroke-miterlimit="3" style="mix-blend-mode:linear_burn;"/></g><g opacity="0.31"><line x1="132" y1="143" x2="132" y2="173" vector-effect="non-scaling-stroke" stroke-width="1" stroke="rgb(0,0,0)" stroke-opacity="0.4" stroke-linejoin="miter" stroke-linecap="square" stroke-miterlimit="3" style="mix-blend-mode:linear_burn;"/></g><g opacity="0.31"><line x1="128" y1="122" x2="128" y2="173" vector-effect="non-scaling-stroke" stroke-width="1" stroke="rgb(0,0,0)" stroke-opacity="0.4" stroke-linejoin="miter" stroke-linecap="square" stroke-miterlimit="3" style="mix-blend-mode:linear_burn;"/></g><g opacity="0.31"><line x1="124" y1="136" x2="124" y2="173" vector-effect="non-scaling-stroke" stroke-width="1" stroke="rgb(0,0,0)" stroke-opacity="0.4" stroke-linejoin="miter" stroke-linecap="square" stroke-miterlimit="3" style="mix-blend-mode:linear_burn;"/></g><g opacity="0.31"><line x1="118" y1="127" x2="118" y2="173" vector-effect="non-scaling-stroke" stroke-width="1" stroke="rgb(0,0,0)" stroke-opacity="0.4" stroke-linejoin="miter" stroke-linecap="square" stroke-miterlimit="3" style="mix-blend-mode:linear_burn;"/></g><g opacity="0.31"><line x1="113" y1="154" x2="113" y2="173" vector-effect="non-scaling-stroke" stroke-width="1" stroke="rgb(0,0,0)" stroke-opacity="0.4" stroke-linejoin="miter" stroke-linecap="square" stroke-miterlimit="3" style="mix-blend-mode:linear_burn;"/></g><g opacity="0.31"><line x1="110" y1="68" x2="110" y2="95" vector-effect="non-scaling-stroke" stroke-width="1" stroke="rgb(0,0,0)" stroke-opacity="0.4" stroke-linejoin="miter" stroke-linecap="square" stroke-miterlimit="3" style="mix-blend-mode:linear_burn;"/></g><g opacity="0.31"><line x1="115" y1="76" x2="115" y2="108" vector-effect="non-scaling-stroke" stroke-width="1" stroke="rgb(0,0,0)" stroke-opacity="0.4" stroke-linejoin="miter" stroke-linecap="square" stroke-miterlimit="3" style="mix-blend-mode:linear_burn;"/></g><g opacity="0.31"><line x1="123" y1="70" x2="123" y2="93" vector-effect="non-scaling-stroke" stroke-width="1" stroke="rgb(0,0,0)" stroke-opacity="0.4" stroke-linejoin="miter" stroke-linecap="square" stroke-miterlimit="3" style="mix-blend-mode:linear_burn;"/></g><g opacity="0.31"><line x1="129" y1="76" x2="129" y2="104" vector-effect="non-scaling-stroke" stroke-width="1" stroke="rgb(0,0,0)" stroke-opacity="0.4" stroke-linejoin="miter" stroke-linecap="square" stroke-miterlimit="3" style="mix-blend-mode:linear_burn;"/></g></g><g clip-path="url(#_clipPath_bmskGu6FR9wkJz1vkDtPp46b3XOK7MoB)"><text transform="matrix(1,0,0,1,-1,172.55)" style="font-family:'Baloo 2';font-weight:700;font-size:211px;font-style:normal;fill:#607d8b;stroke:none;">i   </text><text transform="matrix(1,0,0,1,134.814,172.55)" style="font-family:'Baloo 2';font-weight:700;font-size:130px;font-style:normal;fill:#607d8b;stroke:none;">uminer</text></g><defs><clipPath id="_clipPath_bmskGu6FR9wkJz1vkDtPp46b3XOK7MoB"><rect x="0" y="0" width="562" height="332.114" transform="matrix(1,0,0,1,-1,-49)"/></clipPath></defs></g></g></svg>