<?xml version="1.0" encoding="UTF-8" standalone="no"?><!-- Generator: Gravit.io --><svg xmlns="http://www.w3.org/2000/svg" xmlns:xlink="http://www.w3.org/1999/xlink" style="isolation:isolate" viewBox="0 0 178 178" width="178pt" height="178pt"><defs><clipPath id="_clipPath_BGCsJ6gB0qVpsJPLftz291gp886xBp4Y"><rect width="178" height="178"/></clipPath></defs><g clip-path="url(#_clipPath_BGCsJ6gB0qVpsJPLftz291gp886xBp4Y)"><g style="isolation:isolate"><g style="isolation:isolate"><path d="M 58.041 5 L 81.959 5 C 83.638 5 85 6.362 85 8.041 L 85 170.959 C 85 172.638 83.638 174 81.959 174 L 58.041 174 C 56.362 174 55 172.638 55 170.959 L 55 8.041 C 55 6.362 56.362 5 58.041 5 Z" style="stroke:none;fill:#607D8B;stroke-miterlimit:10;"/><g opacity="0.31"><line x1="61" y1="6" x2="61" y2="173" vector-effect="non-scaling-stroke" stroke-width="1" stroke="rgb(0,0,0)" stroke-opacity="0.4" stroke-linejoin="miter" stroke-linecap="square" stroke-miterlimit="3" style="mix-blend-mode:linear_burn;"/></g><g opacity="0.31"><line x1="83" y1="38" x2="62" y2="38" vector-effect="non-scaling-stroke" stroke-width="1" stroke="rgb(0,0,0)" stroke-opacity="0.4" stroke-linejoin="miter" stroke-linecap="square" stroke-miterlimit="3" style="mix-blend-mode:linear_burn;"/></g><g opacity="0.31"><line x1="83" y1="42" x2="62" y2="42" vector-effect="non-scaling-stroke" stroke-width="1" stroke="rgb(0,0,0)" stroke-opacity="0.4" stroke-linejoin="miter" stroke-linecap="square" stroke-miterlimit="3" style="mix-blend-mode:linear_burn;"/></g><g opacity="0.31"><line x1="83" y1="98" x2="62" y2="98" vector-effect="non-scaling-stroke" stroke-width="1" stroke="rgb(0,0,0)" stroke-opacity="0.4" stroke-linejoin="miter" stroke-linecap="square" stroke-miterlimit="3" style="mix-blend-mode:linear_burn;"/></g><g opacity="0.31"><line x1="83" y1="92" x2="62" y2="92" vector-effect="non-scaling-stroke" stroke-width="1" stroke="rgb(0,0,0)" stroke-opacity="0.4" stroke-linejoin="miter" stroke-linecap="square" stroke-miterlimit="3" style="mix-blend-mode:linear_burn;"/></g><g opacity="0.31"><line x1="81.5" y1="144" x2="62" y2="144" vector-effect="non-scaling-stroke" stroke-width="1" stroke="rgb(0,0,0)" stroke-opacity="0.4" stroke-linejoin="miter" stroke-linecap="square" stroke-miterlimit="3" style="mix-blend-mode:linear_burn;"/></g><g opacity="0.31"><line x1="81.5" y1="141" x2="62" y2="141" vector-effect="non-scaling-stroke" stroke-width="1" stroke="rgb(0,0,0)" stroke-opacity="0.4" stroke-linejoin="miter" stroke-linecap="square" stroke-miterlimit="3" style="mix-blend-mode:linear_burn;"/></g><path d="M 100.23 5 L 125.77 5 C 127.001 5 128 5.999 128 7.23 L 128 171.77 C 128 173.001 127.001 174 125.77 174 L 100.23 174 C 98.999 174 98 173.001 98 171.77 L 98 7.23 C 98 5.999 98.999 5 100.23 5 Z" style="stroke:none;fill:#607D8B;stroke-miterlimit:10;"/><path d="M 101.244 5 L 124.756 5 C 125.442 5 126 5.558 126 6.244 L 126 172.756 C 126 173.442 125.442 174 124.756 174 L 101.244 174 C 100.558 174 100 173.442 100 172.756 L 100 6.244 C 100 5.558 100.558 5 101.244 5 Z" style="stroke:none;fill:#FFFFF9;stroke-miterlimit:10;"/><g opacity="0.31"><line x1="102" y1="6" x2="102" y2="17" vector-effect="non-scaling-stroke" stroke-width="1" stroke="rgb(0,0,0)" stroke-opacity="0.4" stroke-linejoin="miter" stroke-linecap="square" stroke-miterlimit="3" style="mix-blend-mode:linear_burn;"/></g><g opacity="0.31"><line x1="107" y1="6" x2="107" y2="27" vector-effect="non-scaling-stroke" stroke-width="1" stroke="rgb(0,0,0)" stroke-opacity="0.4" stroke-linejoin="miter" stroke-linecap="square" stroke-miterlimit="3" style="mix-blend-mode:linear_burn;"/></g><g opacity="0.31"><line x1="112" y1="6" x2="112" y2="53" vector-effect="non-scaling-stroke" stroke-width="1" stroke="rgb(0,0,0)" stroke-opacity="0.4" stroke-linejoin="miter" stroke-linecap="square" stroke-miterlimit="3" style="mix-blend-mode:linear_burn;"/></g><g opacity="0.31"><line x1="116" y1="6" x2="116" y2="43" vector-effect="non-scaling-stroke" stroke-width="1" stroke="rgb(0,0,0)" stroke-opacity="0.4" stroke-linejoin="miter" stroke-linecap="square" stroke-miterlimit="3" style="mix-blend-mode:linear_burn;"/></g><g opacity="0.31"><line x1="121" y1="6" x2="121" y2="33" vector-effect="non-scaling-stroke" stroke-width="1" stroke="rgb(0,0,0)" stroke-opacity="0.4" stroke-linejoin="miter" stroke-linecap="square" stroke-miterlimit="3" style="mix-blend-mode:linear_burn;"/></g><g opacity="0.31"><line x1="124" y1="143" x2="124" y2="173" vector-effect="non-scaling-stroke" stroke-width="1" stroke="rgb(0,0,0)" stroke-opacity="0.4" stroke-linejoin="miter" stroke-linecap="square" stroke-miterlimit="3" style="mix-blend-mode:linear_burn;"/></g><g opacity="0.31"><line x1="120" y1="122" x2="120" y2="173" vector-effect="non-scaling-stroke" stroke-width="1" stroke="rgb(0,0,0)" stroke-opacity="0.4" stroke-linejoin="miter" stroke-linecap="square" stroke-miterlimit="3" style="mix-blend-mode:linear_burn;"/></g><g opacity="0.31"><line x1="116" y1="136" x2="116" y2="173" vector-effect="non-scaling-stroke" stroke-width="1" stroke="rgb(0,0,0)" stroke-opacity="0.4" stroke-linejoin="miter" stroke-linecap="square" stroke-miterlimit="3" style="mix-blend-mode:linear_burn;"/></g><g opacity="0.31"><line x1="110" y1="127" x2="110" y2="173" vector-effect="non-scaling-stroke" stroke-width="1" stroke="rgb(0,0,0)" stroke-opacity="0.4" stroke-linejoin="miter" stroke-linecap="square" stroke-miterlimit="3" style="mix-blend-mode:linear_burn;"/></g><g opacity="0.31"><line x1="105" y1="154" x2="105" y2="173" vector-effect="non-scaling-stroke" stroke-width="1" stroke="rgb(0,0,0)" stroke-opacity="0.4" stroke-linejoin="miter" stroke-linecap="square" stroke-miterlimit="3" style="mix-blend-mode:linear_burn;"/></g><g opacity="0.31"><line x1="102" y1="68" x2="102" y2="95" vector-effect="non-scaling-stroke" stroke-width="1" stroke="rgb(0,0,0)" stroke-opacity="0.4" stroke-linejoin="miter" stroke-linecap="square" stroke-miterlimit="3" style="mix-blend-mode:linear_burn;"/></g><g opacity="0.31"><line x1="107" y1="76" x2="107" y2="108" vector-effect="non-scaling-stroke" stroke-width="1" stroke="rgb(0,0,0)" stroke-opacity="0.4" stroke-linejoin="miter" stroke-linecap="square" stroke-miterlimit="3" style="mix-blend-mode:linear_burn;"/></g><g opacity="0.31"><line x1="115" y1="70" x2="115" y2="93" vector-effect="non-scaling-stroke" stroke-width="1" stroke="rgb(0,0,0)" stroke-opacity="0.4" stroke-linejoin="miter" stroke-linecap="square" stroke-miterlimit="3" style="mix-blend-mode:linear_burn;"/></g><g opacity="0.31"><line x1="121" y1="76" x2="121" y2="104" vector-effect="non-scaling-stroke" stroke-width="1" stroke="rgb(0,0,0)" stroke-opacity="0.4" stroke-linejoin="miter" stroke-linecap="square" stroke-miterlimit="3" style="mix-blend-mode:linear_burn;"/></g></g></g></g></svg>